
		<svg width="3381.359054053326" height="1891.8974720699066" xmlns="http://www.w3.org/2000/svg" xmlns:xlink="http://www.w3.org/1999/xlink" version="1.1">
            <g transform="scale(19.067952702666297) translate(10, 10)">
				<g id="SvgjsG1010" rel="mainfill" name="main_text" xmlns:name="mainText_mainfill" fill="#ffffff" transform="translate(72.88804895477381,19.80035076141357)"><path d="M6.758 20.894 l0 10.23 l-3.348 0 l0 -23.126 l3.348 0 l0 9.486 c0.93 -0.465 1.953 -0.62 2.945 -0.62 c1.364 0 5.425 0.682 7.533 0.682 c0.961 0 2.139 -0.155 3.131 -0.589 l0 -8.959 l3.379 0 l0 23.126 l-3.379 0 l0 -10.757 c-0.992 0.434 -2.17 0.589 -3.131 0.589 c-2.108 0 -6.169 -0.682 -7.533 -0.682 c-0.992 0 -2.015 0.155 -2.945 0.62 z M44.95 22.970999999999997 c0 -3.596 -3.1 -5.146 -6.138 -5.146 c-3.1 0 -6.138 1.643 -6.138 5.27 s3.1 5.27 6.169 5.27 c3.038 0 6.107 -1.922 6.107 -5.394 z M48.298 22.939999999999998 c0 5.456 -4.65 8.68 -9.517 8.68 s-9.455 -3.162 -9.455 -8.587 c0 -5.456 4.681 -8.494 9.486 -8.494 c4.836 0 9.486 2.821 9.486 8.401 z M57.35 31.124 l-3.162 0 l0 -16.058 l3.162 0 l0 16.058 z M76.632 31.124 l-11.842 0 l0 -16.058 l3.317 0 l0 12.834 l8.525 0 l0 3.224 z M84.44400000000002 31.124 l-3.162 0 l0 -16.058 l3.162 0 l0 16.058 z"/></g><defs id="SvgjsDefs1009"/><g id="SvgjsG1011" rel="mainfill" name="symbol" xmlns:name="symbol_mainfill" fill="#d8ffbc" transform="translate(-10.514924647711094,-0.8098994691801736) scale(0.8098994691801736)"><g xmlns="http://www.w3.org/2000/svg"><polygon fill-rule="evenodd" clip-rule="evenodd" points="12.983,10.59 30.001,98.813 24.129,39.764 53.15,37.872 53.096,27.989    64.549,1 53.622,18.977  "/><polygon fill-rule="evenodd" clip-rule="evenodd" points="59.389,54.548 64.549,1.007 55.809,40.723 36.197,41.768 37.767,62.23    30.001,98.813 42.058,58.914  "/><polygon fill-rule="evenodd" clip-rule="evenodd" points="62.8,67.182 63.349,56.729 47.37,60.484 47.338,72.281 30.001,98.813    51.681,71.197  "/><polygon fill-rule="evenodd" clip-rule="evenodd" points="65.711,62.394 80.552,57.663 82.061,45.131 66.162,47.226  "/><polygon fill-rule="evenodd" clip-rule="evenodd" points="72.07,44.502 83.058,43.085 84.639,32.807 76.56,32.434 64.549,1    72.979,31.967  "/><polygon fill-rule="evenodd" clip-rule="evenodd" points="87.413,31.294 88.669,21.788 79.125,19.094 64.549,1 79.032,23.437    78.61,30.437  "/></g></g>
			</g>
		</svg>
    